<mxfile host="Electron" modified="2024-09-02T10:43:49.128Z" agent="Mozilla/5.0 (Macintosh; Intel Mac OS X 10_15_7) AppleWebKit/537.36 (KHTML, like Gecko) draw.io/24.4.13 Chrome/124.0.6367.207 Electron/30.0.6 Safari/537.36" etag="OAWIfR4bnD8u9KPSs5Dr" version="24.4.13" type="device">
  <diagram name="Page-1" id="d6LIZDPxvEQyGO676ax2">
    <mxGraphModel dx="1420" dy="989" grid="1" gridSize="10" guides="1" tooltips="1" connect="1" arrows="1" fold="1" page="1" pageScale="1" pageWidth="1169" pageHeight="827" math="0" shadow="0">
      <root>
        <mxCell id="0" />
        <mxCell id="1" parent="0" />
        <mxCell id="ljCSRD-bXAw1tPGjxroL-1" value="15. april 1452" style="rounded=0;whiteSpace=wrap;html=1;fontSize=16;" vertex="1" parent="1">
          <mxGeometry x="400" y="320" width="120" height="60" as="geometry" />
        </mxCell>
        <mxCell id="ljCSRD-bXAw1tPGjxroL-8" style="edgeStyle=orthogonalEdgeStyle;rounded=0;orthogonalLoop=1;jettySize=auto;html=1;exitX=1;exitY=0.5;exitDx=0;exitDy=0;entryX=0;entryY=0.5;entryDx=0;entryDy=0;elbow=vertical;curved=1;" edge="1" parent="1" source="ljCSRD-bXAw1tPGjxroL-2" target="ljCSRD-bXAw1tPGjxroL-1">
          <mxGeometry relative="1" as="geometry" />
        </mxCell>
        <mxCell id="ljCSRD-bXAw1tPGjxroL-10" value="fÃ¸dt" style="edgeLabel;html=1;align=center;verticalAlign=middle;resizable=0;points=[];fontSize=18;" vertex="1" connectable="0" parent="ljCSRD-bXAw1tPGjxroL-8">
          <mxGeometry x="0.0125" y="-3" relative="1" as="geometry">
            <mxPoint as="offset" />
          </mxGeometry>
        </mxCell>
        <mxCell id="ljCSRD-bXAw1tPGjxroL-11" style="edgeStyle=orthogonalEdgeStyle;rounded=0;orthogonalLoop=1;jettySize=auto;html=1;exitX=0.5;exitY=0;exitDx=0;exitDy=0;elbow=vertical;curved=1;" edge="1" parent="1" source="ljCSRD-bXAw1tPGjxroL-2" target="ljCSRD-bXAw1tPGjxroL-12">
          <mxGeometry relative="1" as="geometry">
            <mxPoint x="440" y="240" as="targetPoint" />
          </mxGeometry>
        </mxCell>
        <mxCell id="ljCSRD-bXAw1tPGjxroL-13" value="er" style="edgeLabel;html=1;align=center;verticalAlign=middle;resizable=0;points=[];fontSize=18;" vertex="1" connectable="0" parent="ljCSRD-bXAw1tPGjxroL-11">
          <mxGeometry x="0.0342" y="1" relative="1" as="geometry">
            <mxPoint as="offset" />
          </mxGeometry>
        </mxCell>
        <mxCell id="ljCSRD-bXAw1tPGjxroL-2" value="Leonardo&lt;div style=&quot;font-size: 16px;&quot;&gt;da Vinci&lt;/div&gt;" style="ellipse;whiteSpace=wrap;html=1;fontSize=16;" vertex="1" parent="1">
          <mxGeometry x="200" y="280" width="120" height="80" as="geometry" />
        </mxCell>
        <mxCell id="ljCSRD-bXAw1tPGjxroL-6" style="edgeStyle=orthogonalEdgeStyle;rounded=0;orthogonalLoop=1;jettySize=auto;html=1;entryX=0.5;entryY=1;entryDx=0;entryDy=0;elbow=vertical;curved=1;" edge="1" parent="1" source="ljCSRD-bXAw1tPGjxroL-3" target="ljCSRD-bXAw1tPGjxroL-2">
          <mxGeometry relative="1" as="geometry" />
        </mxCell>
        <mxCell id="ljCSRD-bXAw1tPGjxroL-7" value="malt av" style="edgeLabel;html=1;align=center;verticalAlign=middle;resizable=0;points=[];fontSize=18;" vertex="1" connectable="0" parent="ljCSRD-bXAw1tPGjxroL-6">
          <mxGeometry x="-0.0278" y="-3" relative="1" as="geometry">
            <mxPoint x="-3" y="-6" as="offset" />
          </mxGeometry>
        </mxCell>
        <mxCell id="ljCSRD-bXAw1tPGjxroL-3" value="Mona Lisa" style="ellipse;whiteSpace=wrap;html=1;fontSize=16;" vertex="1" parent="1">
          <mxGeometry x="200" y="450" width="120" height="80" as="geometry" />
        </mxCell>
        <mxCell id="ljCSRD-bXAw1tPGjxroL-12" value="Maler" style="ellipse;whiteSpace=wrap;html=1;fontSize=16;" vertex="1" parent="1">
          <mxGeometry x="400" y="200" width="120" height="80" as="geometry" />
        </mxCell>
      </root>
    </mxGraphModel>
  </diagram>
</mxfile>
